<?xml version="1.0" encoding="UTF-8"?><svg xmlns="http://www.w3.org/2000/svg" xmlns:xlink="http://www.w3.org/1999/xlink" fill-opacity="1" color-rendering="auto" color-interpolation="auto" text-rendering="auto" stroke="black" stroke-linecap="square" width="942" stroke-miterlimit="10" shape-rendering="auto" stroke-opacity="1" fill="black" stroke-dasharray="none" font-weight="normal" stroke-width="1" height="740" font-family="'Dialog'" font-style="normal" stroke-linejoin="miter" font-size="12px" stroke-dashoffset="0" image-rendering="auto">
  <!--Generated by ySVG 2.5-->
  <defs id="genericDefs"/>
  <g>
    <defs id="defs1">
      <clipPath clipPathUnits="userSpaceOnUse" id="clipPath1">
        <path d="M0 0 L942 0 L942 740 L0 740 L0 0 Z"/>
      </clipPath>
      <clipPath clipPathUnits="userSpaceOnUse" id="clipPath2">
        <path d="M165 77 L1107 77 L1107 817 L165 817 L165 77 Z"/>
      </clipPath>
      <clipPath clipPathUnits="userSpaceOnUse" id="clipPath3">
        <path d="M274 82 L274 200 L443 200 L443 82 Z"/>
      </clipPath>
      <clipPath clipPathUnits="userSpaceOnUse" id="clipPath4">
        <path d="M0 0 L0 48 L146 48 L146 0 Z"/>
      </clipPath>
      <clipPath clipPathUnits="userSpaceOnUse" id="clipPath5">
        <path d="M170 246 L170 341 L339 341 L339 246 Z"/>
      </clipPath>
      <clipPath clipPathUnits="userSpaceOnUse" id="clipPath6">
        <path d="M369 246 L369 341 L538 341 L538 246 Z"/>
      </clipPath>
      <clipPath clipPathUnits="userSpaceOnUse" id="clipPath7">
        <path d="M673 265 L673 323 L793 323 L793 265 Z"/>
      </clipPath>
      <clipPath clipPathUnits="userSpaceOnUse" id="clipPath8">
        <path d="M748 435 L748 493 L868 493 L868 435 Z"/>
      </clipPath>
      <clipPath clipPathUnits="userSpaceOnUse" id="clipPath9">
        <path d="M814 618 L814 676 L934 676 L934 618 Z"/>
      </clipPath>
      <clipPath clipPathUnits="userSpaceOnUse" id="clipPath10">
        <path d="M568 361 L568 396 L718 396 L718 361 Z"/>
      </clipPath>
      <clipPath clipPathUnits="userSpaceOnUse" id="clipPath11">
        <path d="M642 534 L642 569 L792 569 L792 534 Z"/>
      </clipPath>
      <clipPath clipPathUnits="userSpaceOnUse" id="clipPath12">
        <path d="M822 534 L822 569 L972 569 L972 534 Z"/>
      </clipPath>
      <clipPath clipPathUnits="userSpaceOnUse" id="clipPath13">
        <path d="M710 716 L710 751 L860 751 L860 716 Z"/>
      </clipPath>
      <clipPath clipPathUnits="userSpaceOnUse" id="clipPath14">
        <path d="M890 716 L890 751 L1040 751 L1040 716 Z"/>
      </clipPath>
      <clipPath clipPathUnits="userSpaceOnUse" id="clipPath15">
        <path d="M748 361 L748 396 L898 396 L898 361 Z"/>
      </clipPath>
    </defs>
    <g fill="white" text-rendering="geometricPrecision" shape-rendering="geometricPrecision" transform="translate(-165,-77)" stroke="white">
      <rect x="165" width="942" height="740" y="77" clip-path="url(#clipPath2)" stroke="none"/>
    </g>
    <g text-rendering="geometricPrecision" stroke-miterlimit="1.45" stroke-dasharray="6,2" shape-rendering="geometricPrecision" transform="matrix(1,0,0,1,-165,-77)" stroke-linecap="butt">
      <path fill="none" d="M453.5 246.4774 L453.5 232.75 L371.5 232.75 L371.5 215.0013" clip-path="url(#clipPath2)"/>
      <path fill="white" d="M371.5 200.0013 L365.5 216.0013 L377.5 216.0013 Z" clip-path="url(#clipPath2)" stroke="none"/>
      <path fill="none" stroke-dasharray="none" d="M371.5 200.0013 L365.5 216.0013 L377.5 216.0013 Z" clip-path="url(#clipPath2)"/>
      <path fill="none" d="M254.5 246.4774 L254.5 232.75 L339 232.75 L339 215.0409" clip-path="url(#clipPath2)"/>
      <path fill="white" d="M339 200.0409 L333 216.0409 L345 216.0409 Z" clip-path="url(#clipPath2)" stroke="none"/>
      <path fill="none" stroke-dasharray="none" d="M339 200.0409 L333 216.0409 L345 216.0409 Z" clip-path="url(#clipPath2)"/>
      <path fill="none" stroke-dasharray="none" d="M724.4366 99.5 L451.534 99.5" clip-path="url(#clipPath2)" stroke="silver"/>
      <path fill="silver" stroke-dasharray="none" d="M443.534 99.5 L455.534 104.5 L452.534 99.5 L455.534 94.5 Z" clip-path="url(#clipPath2)" stroke="none"/>
      <path fill="none" d="M643 360.9784 L643 350.3333 L714.25 350.3333 L714.25 338.0194" clip-path="url(#clipPath2)"/>
      <path fill="white" d="M714.25 323.0194 L708.25 339.0194 L720.25 339.0194 Z" clip-path="url(#clipPath2)" stroke="none"/>
      <path fill="none" stroke-dasharray="none" d="M714.25 323.0194 L708.25 339.0194 L720.25 339.0194 Z" clip-path="url(#clipPath2)"/>
      <path fill="none" d="M823 360.9784 L823 350.3333 L749.4583 350.3333 L749.4583 338.0049" clip-path="url(#clipPath2)"/>
      <path fill="white" d="M749.4583 323.0049 L743.4583 339.0049 L755.4583 339.0049 Z" clip-path="url(#clipPath2)" stroke="none"/>
      <path fill="none" stroke-dasharray="none" d="M749.4583 323.0049 L743.4583 339.0049 L755.4583 339.0049 Z" clip-path="url(#clipPath2)"/>
      <path fill="none" stroke-dasharray="none" d="M742.1667 117.0221 L742.1667 257.0078" clip-path="url(#clipPath2)" stroke="silver"/>
      <path fill="silver" stroke-dasharray="none" d="M742.1667 265.0078 L747.1667 253.0078 L742.1667 256.0078 L737.1667 253.0078 Z" clip-path="url(#clipPath2)" stroke="none"/>
      <path fill="none" d="M717 533.9724 L717 521.8333 L792.375 521.8333 L792.375 508.0014" clip-path="url(#clipPath2)"/>
      <path fill="white" d="M792.375 493.0014 L786.375 509.0014 L798.375 509.0014 Z" clip-path="url(#clipPath2)" stroke="none"/>
      <path fill="none" stroke-dasharray="none" d="M792.375 493.0014 L786.375 509.0014 L798.375 509.0014 Z" clip-path="url(#clipPath2)"/>
      <path fill="none" d="M897 533.9724 L897 521.8333 L828 521.8333 L828 507.9958" clip-path="url(#clipPath2)"/>
      <path fill="white" d="M828 492.9958 L822 508.9958 L834 508.9958 Z" clip-path="url(#clipPath2)" stroke="none"/>
      <path fill="none" stroke-dasharray="none" d="M828 492.9958 L822 508.9958 L834 508.9958 Z" clip-path="url(#clipPath2)"/>
      <path fill="none" stroke-dasharray="none" d="M813 116.9864 L813 426.9834" clip-path="url(#clipPath2)" stroke="silver"/>
      <path fill="silver" stroke-dasharray="none" d="M813 434.9834 L818 422.9834 L813 425.9834 L808 422.9834 Z" clip-path="url(#clipPath2)" stroke="none"/>
      <path fill="none" d="M785 716.2543 L785 705.625 L858.375 705.625 L858.375 691.238" clip-path="url(#clipPath2)"/>
      <path fill="white" d="M858.375 676.238 L852.375 692.238 L864.375 692.238 Z" clip-path="url(#clipPath2)" stroke="none"/>
      <path fill="none" stroke-dasharray="none" d="M858.375 676.238 L852.375 692.238 L864.375 692.238 Z" clip-path="url(#clipPath2)"/>
      <path fill="none" d="M965 716.2543 L965 705.625 L894 705.625 L894 691.2388" clip-path="url(#clipPath2)"/>
      <path fill="white" d="M894 676.2388 L888 692.2388 L900 692.2388 Z" clip-path="url(#clipPath2)" stroke="none"/>
      <path fill="none" stroke-dasharray="none" d="M894 676.2388 L888 692.2388 L900 692.2388 Z" clip-path="url(#clipPath2)"/>
      <path fill="none" stroke-dasharray="none" d="M874 116.9849 L874 610.2188" clip-path="url(#clipPath2)" stroke="silver"/>
      <path fill="silver" stroke-dasharray="none" d="M874 618.2188 L879 606.2188 L874 609.2188 L869 606.2188 Z" clip-path="url(#clipPath2)" stroke="none"/>
      <path fill="none" d="M473.5 341.4996 L473.5 378.5 L560.0245 378.5" clip-path="url(#clipPath2)"/>
      <path d="M568.0245 378.5 L556.0245 373.5 L559.0245 378.5 L556.0245 383.5 Z" clip-path="url(#clipPath2)" stroke="none"/>
      <text x="485.4961" y="371.8633" clip-path="url(#clipPath2)" font-family="sans-serif" stroke-dasharray="none" stroke="none" xml:space="preserve">&lt;&lt;create&gt;&gt;</text>
      <path fill="none" d="M453.5 341.4954 L453.5 551.5 L634.0222 551.5" clip-path="url(#clipPath2)"/>
      <path d="M642.0222 551.5 L630.0222 546.5 L633.0222 551.5 L630.0222 556.5 Z" clip-path="url(#clipPath2)" stroke="none"/>
      <text x="457.5" y="545.8633" clip-path="url(#clipPath2)" font-family="sans-serif" stroke-dasharray="none" stroke="none" xml:space="preserve">&lt;&lt;create&gt;&gt;</text>
      <path fill="none" d="M260.75 341.4973 L260.75 791.25 L1081.75 791.25 L1081.75 551.5 L980.0096 551.5" clip-path="url(#clipPath2)"/>
      <path d="M972.0096 551.5 L984.0096 556.5 L981.0096 551.5 L984.0096 546.5 Z" clip-path="url(#clipPath2)" stroke="none"/>
      <text x="640.5586" y="784.6133" clip-path="url(#clipPath2)" font-family="sans-serif" stroke-dasharray="none" stroke="none" xml:space="preserve">&lt;&lt;create&gt;&gt;</text>
      <path fill="none" d="M433.5 341.512 L433.5 733.75 L702.0402 733.75" clip-path="url(#clipPath2)"/>
      <path d="M710.0402 733.75 L698.0402 728.75 L701.0402 733.75 L698.0402 738.75 Z" clip-path="url(#clipPath2)" stroke="none"/>
      <text x="437.5" y="728.1133" clip-path="url(#clipPath2)" font-family="sans-serif" stroke-dasharray="none" stroke="none" xml:space="preserve">&lt;&lt;create&gt;&gt;</text>
      <path fill="none" d="M280.75 341.5095 L280.75 771.25 L1068 771.25 L1068 733.75 L1048.012 733.75" clip-path="url(#clipPath2)"/>
      <path d="M1040.012 733.75 L1052.012 738.75 L1049.012 733.75 L1052.012 728.75 Z" clip-path="url(#clipPath2)" stroke="none"/>
      <text x="643.6836" y="764.6133" clip-path="url(#clipPath2)" font-family="sans-serif" stroke-dasharray="none" stroke="none" xml:space="preserve">&lt;&lt;create&gt;&gt;</text>
      <path fill="none" d="M240.75 341.5135 L240.75 811.25 L1101.75 811.25 L1101.75 378.5 L906.0298 378.5" clip-path="url(#clipPath2)"/>
      <path d="M898.0298 378.5 L910.0298 383.5 L907.0298 378.5 L910.0298 373.5 Z" clip-path="url(#clipPath2)" stroke="none"/>
      <text x="640.5586" y="804.6133" clip-path="url(#clipPath2)" font-family="sans-serif" stroke-dasharray="none" stroke="none" xml:space="preserve">&lt;&lt;create&gt;&gt;</text>
    </g>
    <g fill="rgb(255,204,0)" text-rendering="geometricPrecision" shape-rendering="geometricPrecision" transform="matrix(1,0,0,1,-165,-77)" stroke="rgb(255,204,0)">
      <rect x="275" width="167" height="116" y="83" clip-path="url(#clipPath2)" stroke="none"/>
      <rect x="274" y="82" clip-path="url(#clipPath2)" fill="yellow" width="1" height="118" stroke="none"/>
      <rect x="275" y="82" clip-path="url(#clipPath2)" fill="yellow" width="167" height="1" stroke="none"/>
      <rect x="275" y="199" clip-path="url(#clipPath2)" fill="rgb(178,142,0)" width="168" height="1" stroke="none"/>
      <rect x="442" y="82" clip-path="url(#clipPath2)" fill="rgb(178,142,0)" width="1" height="117" stroke="none"/>
    </g>
    <g text-rendering="geometricPrecision" stroke-miterlimit="1.45" shape-rendering="geometricPrecision" font-family="sans-serif" transform="matrix(1,0,0,1,-165,-77)" stroke-linecap="butt">
      <text x="321.9717" xml:space="preserve" y="99.0645" clip-path="url(#clipPath3)" stroke="none">&lt;&lt;interface&gt;&gt;</text>
      <text x="309.1519" font-size="13px" y="123.771" clip-path="url(#clipPath3)" font-style="italic" stroke="none" font-weight="bold" xml:space="preserve">AbstractFactory</text>
      <line stroke-linecap="square" clip-path="url(#clipPath3)" fill="none" x1="275" x2="442" y1="131" y2="131" stroke-miterlimit="10"/>
      <line stroke-linecap="square" clip-path="url(#clipPath3)" fill="none" x1="275" x2="442" y1="141" y2="141" stroke-miterlimit="10"/>
    </g>
    <g stroke-linecap="butt" transform="matrix(1,0,0,1,-165,-77) translate(279,146)" text-rendering="geometricPrecision" font-family="sans-serif" shape-rendering="geometricPrecision" font-style="italic" stroke-miterlimit="1.45">
      <text x="0" xml:space="preserve" y="13" clip-path="url(#clipPath4)" stroke="none">createProduct1(): Product1</text>
      <text x="146" xml:space="preserve" y="13" clip-path="url(#clipPath4)" stroke="none"> </text>
      <text x="0" xml:space="preserve" y="29" clip-path="url(#clipPath4)" stroke="none">createProduct2(): Product2</text>
      <text x="146" xml:space="preserve" y="29" clip-path="url(#clipPath4)" stroke="none"> </text>
      <text x="0" xml:space="preserve" y="45" clip-path="url(#clipPath4)" stroke="none">createProduct3(): Product3</text>
      <text x="146" xml:space="preserve" y="45" clip-path="url(#clipPath4)" stroke="none"> </text>
    </g>
    <g fill="rgb(255,204,0)" text-rendering="geometricPrecision" shape-rendering="geometricPrecision" transform="matrix(1,0,0,1,-165,-77)" stroke="rgb(255,204,0)">
      <rect x="171" width="167" height="93" y="247" clip-path="url(#clipPath2)" stroke="none"/>
      <rect x="170" y="246" clip-path="url(#clipPath2)" fill="yellow" width="1" height="95" stroke="none"/>
      <rect x="171" y="246" clip-path="url(#clipPath2)" fill="yellow" width="167" height="1" stroke="none"/>
      <rect x="171" y="340" clip-path="url(#clipPath2)" fill="rgb(178,142,0)" width="168" height="1" stroke="none"/>
      <rect x="338" y="246" clip-path="url(#clipPath2)" fill="rgb(178,142,0)" width="1" height="94" stroke="none"/>
    </g>
    <g font-size="13px" stroke-linecap="butt" transform="matrix(1,0,0,1,-165,-77)" text-rendering="geometricPrecision" font-family="sans-serif" shape-rendering="geometricPrecision" font-weight="bold" stroke-miterlimit="1.45">
      <text x="198.1519" xml:space="preserve" y="264.5698" clip-path="url(#clipPath5)" stroke="none">ConcreteFactoryB</text>
    </g>
    <g text-rendering="geometricPrecision" shape-rendering="geometricPrecision" transform="matrix(1,0,0,1,-165,-77)">
      <line y2="272" fill="none" x1="171" clip-path="url(#clipPath5)" x2="338" y1="272"/>
      <line y2="282" fill="none" x1="171" clip-path="url(#clipPath5)" x2="338" y1="282"/>
      <text stroke-linecap="butt" x="175" y="299.4907" clip-path="url(#clipPath5)" font-family="sans-serif" stroke="none" stroke-miterlimit="1.45" xml:space="preserve">createProduct1(): Product1</text>
      <text stroke-linecap="butt" x="175" y="314.1919" clip-path="url(#clipPath5)" font-family="sans-serif" stroke="none" stroke-miterlimit="1.45" xml:space="preserve">createProduct2(): Product2</text>
      <text stroke-linecap="butt" x="175" y="328.8931" clip-path="url(#clipPath5)" font-family="sans-serif" stroke="none" stroke-miterlimit="1.45" xml:space="preserve">createProduct3(): Product3</text>
      <rect x="370" y="247" clip-path="url(#clipPath2)" fill="rgb(255,204,0)" width="167" height="93" stroke="none"/>
      <rect x="369" y="246" clip-path="url(#clipPath2)" fill="yellow" width="1" height="95" stroke="none"/>
      <rect x="370" y="246" clip-path="url(#clipPath2)" fill="yellow" width="167" height="1" stroke="none"/>
      <rect x="370" y="340" clip-path="url(#clipPath2)" fill="rgb(178,142,0)" width="168" height="1" stroke="none"/>
      <rect x="537" y="246" clip-path="url(#clipPath2)" fill="rgb(178,142,0)" width="1" height="94" stroke="none"/>
    </g>
    <g font-size="13px" stroke-linecap="butt" transform="matrix(1,0,0,1,-165,-77)" text-rendering="geometricPrecision" font-family="sans-serif" shape-rendering="geometricPrecision" font-weight="bold" stroke-miterlimit="1.45">
      <text x="397.1519" xml:space="preserve" y="264.5698" clip-path="url(#clipPath6)" stroke="none">ConcreteFactoryA</text>
    </g>
    <g text-rendering="geometricPrecision" shape-rendering="geometricPrecision" transform="matrix(1,0,0,1,-165,-77)">
      <line y2="272" fill="none" x1="370" clip-path="url(#clipPath6)" x2="537" y1="272"/>
      <line y2="282" fill="none" x1="370" clip-path="url(#clipPath6)" x2="537" y1="282"/>
      <text stroke-linecap="butt" x="374" y="299.4907" clip-path="url(#clipPath6)" font-family="sans-serif" stroke="none" stroke-miterlimit="1.45" xml:space="preserve">createProduct1(): Product1</text>
      <text stroke-linecap="butt" x="374" y="314.1919" clip-path="url(#clipPath6)" font-family="sans-serif" stroke="none" stroke-miterlimit="1.45" xml:space="preserve">createProduct2(): Product2</text>
      <text stroke-linecap="butt" x="374" y="328.8931" clip-path="url(#clipPath6)" font-family="sans-serif" stroke="none" stroke-miterlimit="1.45" xml:space="preserve">createProduct3(): Product3</text>
      <rect x="674" y="266" clip-path="url(#clipPath2)" fill="rgb(255,204,0)" width="118" height="56" stroke="none"/>
      <rect x="673" y="265" clip-path="url(#clipPath2)" fill="yellow" width="1" height="58" stroke="none"/>
      <rect x="674" y="265" clip-path="url(#clipPath2)" fill="yellow" width="118" height="1" stroke="none"/>
      <rect x="674" y="322" clip-path="url(#clipPath2)" fill="rgb(178,142,0)" width="119" height="1" stroke="none"/>
      <rect x="792" y="265" clip-path="url(#clipPath2)" fill="rgb(178,142,0)" width="1" height="57" stroke="none"/>
      <text stroke-linecap="butt" x="695.9717" y="282.0645" clip-path="url(#clipPath7)" font-family="sans-serif" stroke="none" stroke-miterlimit="1.45" xml:space="preserve">&lt;&lt;interface&gt;&gt;</text>
    </g>
    <g stroke-linecap="butt" font-size="13px" transform="matrix(1,0,0,1,-165,-77)" text-rendering="geometricPrecision" font-family="sans-serif" shape-rendering="geometricPrecision" font-style="italic" font-weight="bold" stroke-miterlimit="1.45">
      <text x="704.8291" xml:space="preserve" y="306.771" clip-path="url(#clipPath7)" stroke="none">Product1</text>
    </g>
    <g fill="rgb(255,204,0)" text-rendering="geometricPrecision" shape-rendering="geometricPrecision" transform="matrix(1,0,0,1,-165,-77)" stroke="rgb(255,204,0)">
      <rect x="749" width="118" height="56" y="436" clip-path="url(#clipPath2)" stroke="none"/>
      <rect x="748" y="435" clip-path="url(#clipPath2)" fill="yellow" width="1" height="58" stroke="none"/>
      <rect x="749" y="435" clip-path="url(#clipPath2)" fill="yellow" width="118" height="1" stroke="none"/>
      <rect x="749" y="492" clip-path="url(#clipPath2)" fill="rgb(178,142,0)" width="119" height="1" stroke="none"/>
      <rect x="867" y="435" clip-path="url(#clipPath2)" fill="rgb(178,142,0)" width="1" height="57" stroke="none"/>
    </g>
    <g text-rendering="geometricPrecision" stroke-miterlimit="1.45" shape-rendering="geometricPrecision" font-family="sans-serif" transform="matrix(1,0,0,1,-165,-77)" stroke-linecap="butt">
      <text x="770.9717" xml:space="preserve" y="452.0645" clip-path="url(#clipPath8)" stroke="none">&lt;&lt;interface&gt;&gt;</text>
      <text x="779.8291" font-size="13px" y="476.771" clip-path="url(#clipPath8)" font-style="italic" stroke="none" font-weight="bold" xml:space="preserve">Product2</text>
    </g>
    <g fill="rgb(255,204,0)" text-rendering="geometricPrecision" shape-rendering="geometricPrecision" transform="matrix(1,0,0,1,-165,-77)" stroke="rgb(255,204,0)">
      <rect x="815" width="118" height="56" y="619" clip-path="url(#clipPath2)" stroke="none"/>
      <rect x="814" y="618" clip-path="url(#clipPath2)" fill="yellow" width="1" height="58" stroke="none"/>
      <rect x="815" y="618" clip-path="url(#clipPath2)" fill="yellow" width="118" height="1" stroke="none"/>
      <rect x="815" y="675" clip-path="url(#clipPath2)" fill="rgb(178,142,0)" width="119" height="1" stroke="none"/>
      <rect x="933" y="618" clip-path="url(#clipPath2)" fill="rgb(178,142,0)" width="1" height="57" stroke="none"/>
    </g>
    <g text-rendering="geometricPrecision" stroke-miterlimit="1.45" shape-rendering="geometricPrecision" font-family="sans-serif" transform="matrix(1,0,0,1,-165,-77)" stroke-linecap="butt">
      <text x="836.9717" xml:space="preserve" y="635.3145" clip-path="url(#clipPath9)" stroke="none">&lt;&lt;interface&gt;&gt;</text>
      <text x="845.8291" font-size="13px" y="660.021" clip-path="url(#clipPath9)" font-style="italic" stroke="none" font-weight="bold" xml:space="preserve">Product3</text>
    </g>
    <g fill="rgb(255,204,0)" text-rendering="geometricPrecision" shape-rendering="geometricPrecision" transform="matrix(1,0,0,1,-165,-77)" stroke="rgb(255,204,0)">
      <rect x="569" width="148" height="33" y="362" clip-path="url(#clipPath2)" stroke="none"/>
      <rect x="568" y="361" clip-path="url(#clipPath2)" fill="yellow" width="1" height="35" stroke="none"/>
      <rect x="569" y="361" clip-path="url(#clipPath2)" fill="yellow" width="148" height="1" stroke="none"/>
      <rect x="569" y="395" clip-path="url(#clipPath2)" fill="rgb(178,142,0)" width="149" height="1" stroke="none"/>
      <rect x="717" y="361" clip-path="url(#clipPath2)" fill="rgb(178,142,0)" width="1" height="34" stroke="none"/>
    </g>
    <g font-size="13px" stroke-linecap="butt" transform="matrix(1,0,0,1,-165,-77)" text-rendering="geometricPrecision" font-family="sans-serif" shape-rendering="geometricPrecision" font-weight="bold" stroke-miterlimit="1.45">
      <text x="581.9609" xml:space="preserve" y="379.0698" clip-path="url(#clipPath10)" stroke="none">ConcreteProduct1A</text>
    </g>
    <g fill="rgb(255,204,0)" text-rendering="geometricPrecision" shape-rendering="geometricPrecision" transform="matrix(1,0,0,1,-165,-77)" stroke="rgb(255,204,0)">
      <rect x="643" width="148" height="33" y="535" clip-path="url(#clipPath2)" stroke="none"/>
      <rect x="642" y="534" clip-path="url(#clipPath2)" fill="yellow" width="1" height="35" stroke="none"/>
      <rect x="643" y="534" clip-path="url(#clipPath2)" fill="yellow" width="148" height="1" stroke="none"/>
      <rect x="643" y="568" clip-path="url(#clipPath2)" fill="rgb(178,142,0)" width="149" height="1" stroke="none"/>
      <rect x="791" y="534" clip-path="url(#clipPath2)" fill="rgb(178,142,0)" width="1" height="34" stroke="none"/>
    </g>
    <g font-size="13px" stroke-linecap="butt" transform="matrix(1,0,0,1,-165,-77)" text-rendering="geometricPrecision" font-family="sans-serif" shape-rendering="geometricPrecision" font-weight="bold" stroke-miterlimit="1.45">
      <text x="655.9609" xml:space="preserve" y="552.0698" clip-path="url(#clipPath11)" stroke="none">ConcreteProduct2A</text>
    </g>
    <g fill="rgb(255,204,0)" text-rendering="geometricPrecision" shape-rendering="geometricPrecision" transform="matrix(1,0,0,1,-165,-77)" stroke="rgb(255,204,0)">
      <rect x="823" width="148" height="33" y="535" clip-path="url(#clipPath2)" stroke="none"/>
      <rect x="822" y="534" clip-path="url(#clipPath2)" fill="yellow" width="1" height="35" stroke="none"/>
      <rect x="823" y="534" clip-path="url(#clipPath2)" fill="yellow" width="148" height="1" stroke="none"/>
      <rect x="823" y="568" clip-path="url(#clipPath2)" fill="rgb(178,142,0)" width="149" height="1" stroke="none"/>
      <rect x="971" y="534" clip-path="url(#clipPath2)" fill="rgb(178,142,0)" width="1" height="34" stroke="none"/>
    </g>
    <g font-size="13px" stroke-linecap="butt" transform="matrix(1,0,0,1,-165,-77)" text-rendering="geometricPrecision" font-family="sans-serif" shape-rendering="geometricPrecision" font-weight="bold" stroke-miterlimit="1.45">
      <text x="835.9609" xml:space="preserve" y="552.0698" clip-path="url(#clipPath12)" stroke="none">ConcreteProduct2B</text>
    </g>
    <g fill="rgb(255,204,0)" text-rendering="geometricPrecision" shape-rendering="geometricPrecision" transform="matrix(1,0,0,1,-165,-77)" stroke="rgb(255,204,0)">
      <rect x="711" width="148" height="33" y="717" clip-path="url(#clipPath2)" stroke="none"/>
      <rect x="710" y="716" clip-path="url(#clipPath2)" fill="yellow" width="1" height="35" stroke="none"/>
      <rect x="711" y="716" clip-path="url(#clipPath2)" fill="yellow" width="148" height="1" stroke="none"/>
      <rect x="711" y="750" clip-path="url(#clipPath2)" fill="rgb(178,142,0)" width="149" height="1" stroke="none"/>
      <rect x="859" y="716" clip-path="url(#clipPath2)" fill="rgb(178,142,0)" width="1" height="34" stroke="none"/>
    </g>
    <g font-size="13px" stroke-linecap="butt" transform="matrix(1,0,0,1,-165,-77)" text-rendering="geometricPrecision" font-family="sans-serif" shape-rendering="geometricPrecision" font-weight="bold" stroke-miterlimit="1.45">
      <text x="723.9609" xml:space="preserve" y="734.3198" clip-path="url(#clipPath13)" stroke="none">ConcreteProduct3A</text>
    </g>
    <g fill="rgb(255,204,0)" text-rendering="geometricPrecision" shape-rendering="geometricPrecision" transform="matrix(1,0,0,1,-165,-77)" stroke="rgb(255,204,0)">
      <rect x="891" width="148" height="33" y="717" clip-path="url(#clipPath2)" stroke="none"/>
      <rect x="890" y="716" clip-path="url(#clipPath2)" fill="yellow" width="1" height="35" stroke="none"/>
      <rect x="891" y="716" clip-path="url(#clipPath2)" fill="yellow" width="148" height="1" stroke="none"/>
      <rect x="891" y="750" clip-path="url(#clipPath2)" fill="rgb(178,142,0)" width="149" height="1" stroke="none"/>
      <rect x="1039" y="716" clip-path="url(#clipPath2)" fill="rgb(178,142,0)" width="1" height="34" stroke="none"/>
    </g>
    <g font-size="13px" stroke-linecap="butt" transform="matrix(1,0,0,1,-165,-77)" text-rendering="geometricPrecision" font-family="sans-serif" shape-rendering="geometricPrecision" font-weight="bold" stroke-miterlimit="1.45">
      <text x="903.9609" xml:space="preserve" y="734.3198" clip-path="url(#clipPath14)" stroke="none">ConcreteProduct3B</text>
    </g>
    <g fill="rgb(255,204,0)" text-rendering="geometricPrecision" shape-rendering="geometricPrecision" transform="matrix(1,0,0,1,-165,-77)" stroke="rgb(255,204,0)">
      <rect x="749" width="148" height="33" y="362" clip-path="url(#clipPath2)" stroke="none"/>
      <rect x="748" y="361" clip-path="url(#clipPath2)" fill="yellow" width="1" height="35" stroke="none"/>
      <rect x="749" y="361" clip-path="url(#clipPath2)" fill="yellow" width="148" height="1" stroke="none"/>
      <rect x="749" y="395" clip-path="url(#clipPath2)" fill="rgb(178,142,0)" width="149" height="1" stroke="none"/>
      <rect x="897" y="361" clip-path="url(#clipPath2)" fill="rgb(178,142,0)" width="1" height="34" stroke="none"/>
    </g>
    <g font-size="13px" stroke-linecap="butt" transform="matrix(1,0,0,1,-165,-77)" text-rendering="geometricPrecision" font-family="sans-serif" shape-rendering="geometricPrecision" font-weight="bold" stroke-miterlimit="1.45">
      <text x="761.9609" xml:space="preserve" y="379.0698" clip-path="url(#clipPath15)" stroke="none">ConcreteProduct1B</text>
      <text x="790.6593" font-size="12px" y="104.2139" clip-path="url(#clipPath2)" stroke="none" font-weight="normal" xml:space="preserve">Client</text>
      <rect fill="none" x="724.4366" width="163.125" height="35" y="82" clip-path="url(#clipPath2)"/>
    </g>
  </g>
</svg>
