<?xml version="1.0" encoding="UTF-8"?><svg xmlns="http://www.w3.org/2000/svg" xmlns:xlink="http://www.w3.org/1999/xlink" fill-opacity="1" color-rendering="auto" color-interpolation="auto" text-rendering="auto" stroke="black" stroke-linecap="square" width="804" stroke-miterlimit="10" shape-rendering="auto" stroke-opacity="1" fill="black" stroke-dasharray="none" font-weight="normal" stroke-width="1" height="511" font-family="'Dialog'" font-style="normal" stroke-linejoin="miter" font-size="12px" stroke-dashoffset="0" image-rendering="auto">
  <!--Generated by ySVG 2.5-->
  <defs id="genericDefs"/>
  <g>
    <defs id="defs1">
      <clipPath clipPathUnits="userSpaceOnUse" id="clipPath1">
        <path d="M0 0 L804 0 L804 511 L0 511 L0 0 Z"/>
      </clipPath>
      <clipPath clipPathUnits="userSpaceOnUse" id="clipPath2">
        <path d="M106 -23 L910 -23 L910 488 L106 488 L106 -23 Z"/>
      </clipPath>
      <clipPath clipPathUnits="userSpaceOnUse" id="clipPath3">
        <path d="M273 175 L273 250 L415 250 L415 175 Z"/>
      </clipPath>
      <clipPath clipPathUnits="userSpaceOnUse" id="clipPath4">
        <path d="M273 269 L273 344 L415 344 L415 269 Z"/>
      </clipPath>
      <clipPath clipPathUnits="userSpaceOnUse" id="clipPath5">
        <path d="M454 315 L454 390 L588 390 L588 315 Z"/>
      </clipPath>
      <clipPath clipPathUnits="userSpaceOnUse" id="clipPath6">
        <path d="M601 315 L601 390 L743 390 L743 315 Z"/>
      </clipPath>
      <clipPath clipPathUnits="userSpaceOnUse" id="clipPath7">
        <path d="M755 315 L755 390 L897 390 L897 315 Z"/>
      </clipPath>
      <clipPath clipPathUnits="userSpaceOnUse" id="clipPath8">
        <path d="M755 400 L755 475 L897 475 L897 400 Z"/>
      </clipPath>
      <clipPath clipPathUnits="userSpaceOnUse" id="clipPath9">
        <path d="M419 -18 L419 84 L556 84 L556 -18 Z"/>
      </clipPath>
      <clipPath clipPathUnits="userSpaceOnUse" id="clipPath10">
        <path d="M0 0 L0 32 L126 32 L126 0 Z"/>
      </clipPath>
      <clipPath clipPathUnits="userSpaceOnUse" id="clipPath11">
        <path d="M604 154 L604 235 L738 235 L738 154 Z"/>
      </clipPath>
      <clipPath clipPathUnits="userSpaceOnUse" id="clipPath12">
        <path d="M454 400 L454 475 L588 475 L588 400 Z"/>
      </clipPath>
      <clipPath clipPathUnits="userSpaceOnUse" id="clipPath13">
        <path d="M119 269 L119 344 L261 344 L261 269 Z"/>
      </clipPath>
      <clipPath clipPathUnits="userSpaceOnUse" id="clipPath14">
        <path d="M119 175 L119 250 L261 250 L261 175 Z"/>
      </clipPath>
    </defs>
    <g fill="white" text-rendering="geometricPrecision" shape-rendering="geometricPrecision" transform="translate(-106,23)" stroke="white">
      <rect x="106" width="804" height="511" y="-23" clip-path="url(#clipPath2)" stroke="none"/>
    </g>
    <g text-rendering="geometricPrecision" stroke-miterlimit="1.45" shape-rendering="geometricPrecision" font-family="sans-serif" transform="matrix(1,0,0,1,-106,23)" stroke-linecap="butt">
      <text x="117.75" xml:space="preserve" y="169.0645" clip-path="url(#clipPath2)" stroke="none">Konkrete Basisgerichte</text>
      <rect x="111.75" y="151" clip-path="url(#clipPath2)" fill="none" width="313.5" stroke-dasharray="6,2" rx="4" ry="4" height="200"/>
    </g>
    <g fill="rgb(255,204,0)" text-rendering="geometricPrecision" shape-rendering="geometricPrecision" transform="matrix(1,0,0,1,-106,23)" stroke="rgb(255,204,0)">
      <rect x="274" width="140" height="73" y="176" clip-path="url(#clipPath2)" stroke="none"/>
      <rect x="273" y="175" clip-path="url(#clipPath2)" fill="yellow" width="1" height="75" stroke="none"/>
      <rect x="274" y="175" clip-path="url(#clipPath2)" fill="yellow" width="140" height="1" stroke="none"/>
      <rect x="274" y="249" clip-path="url(#clipPath2)" fill="rgb(178,142,0)" width="141" height="1" stroke="none"/>
      <rect x="414" y="175" clip-path="url(#clipPath2)" fill="rgb(178,142,0)" width="1" height="74" stroke="none"/>
    </g>
    <g font-size="13px" stroke-linecap="butt" transform="matrix(1,0,0,1,-106,23)" text-rendering="geometricPrecision" font-family="sans-serif" shape-rendering="geometricPrecision" font-weight="bold" stroke-miterlimit="1.45">
      <text x="315.1318" xml:space="preserve" y="193.0698" clip-path="url(#clipPath3)" stroke="none">Hüftsteak</text>
    </g>
    <g text-rendering="geometricPrecision" shape-rendering="geometricPrecision" transform="matrix(1,0,0,1,-106,23)">
      <line y2="200" fill="none" x1="274" clip-path="url(#clipPath3)" x2="414" y1="200"/>
      <line y2="210" fill="none" x1="274" clip-path="url(#clipPath3)" x2="414" y1="210"/>
      <text stroke-linecap="butt" x="278.75" y="227.9907" clip-path="url(#clipPath3)" font-family="sans-serif" stroke="none" stroke-miterlimit="1.45" xml:space="preserve">getPreis(): int</text>
      <text stroke-linecap="butt" x="278.75" y="242.6919" clip-path="url(#clipPath3)" font-family="sans-serif" stroke="none" stroke-miterlimit="1.45" xml:space="preserve">druckeBeschreibung()</text>
      <rect x="274" y="270" clip-path="url(#clipPath2)" fill="rgb(255,204,0)" width="140" height="73" stroke="none"/>
      <rect x="273" y="269" clip-path="url(#clipPath2)" fill="yellow" width="1" height="75" stroke="none"/>
      <rect x="274" y="269" clip-path="url(#clipPath2)" fill="yellow" width="140" height="1" stroke="none"/>
      <rect x="274" y="343" clip-path="url(#clipPath2)" fill="rgb(178,142,0)" width="141" height="1" stroke="none"/>
      <rect x="414" y="269" clip-path="url(#clipPath2)" fill="rgb(178,142,0)" width="1" height="74" stroke="none"/>
    </g>
    <g font-size="13px" stroke-linecap="butt" transform="matrix(1,0,0,1,-106,23)" text-rendering="geometricPrecision" font-family="sans-serif" shape-rendering="geometricPrecision" font-weight="bold" stroke-miterlimit="1.45">
      <text x="294.5464" xml:space="preserve" y="287.0698" clip-path="url(#clipPath4)" stroke="none">WienerSchnitzel</text>
    </g>
    <g text-rendering="geometricPrecision" shape-rendering="geometricPrecision" transform="matrix(1,0,0,1,-106,23)">
      <line y2="294" fill="none" x1="274" clip-path="url(#clipPath4)" x2="414" y1="294"/>
      <line y2="304" fill="none" x1="274" clip-path="url(#clipPath4)" x2="414" y1="304"/>
      <text stroke-linecap="butt" x="278.75" y="321.9907" clip-path="url(#clipPath4)" font-family="sans-serif" stroke="none" stroke-miterlimit="1.45" xml:space="preserve">getPreis(): int</text>
      <text stroke-linecap="butt" x="278.75" y="336.6919" clip-path="url(#clipPath4)" font-family="sans-serif" stroke="none" stroke-miterlimit="1.45" xml:space="preserve">druckeBeschreibung()</text>
      <text stroke-linecap="butt" x="451.75" y="310.6645" clip-path="url(#clipPath2)" font-family="sans-serif" stroke="none" stroke-miterlimit="1.45" xml:space="preserve">Konkrete Beilagen</text>
      <rect stroke-linecap="butt" x="445.75" y="292.6" clip-path="url(#clipPath2)" fill="none" width="459" stroke-dasharray="6,2" rx="4" ry="4" height="190" stroke-miterlimit="1.45"/>
      <rect x="455" y="316" clip-path="url(#clipPath2)" fill="rgb(255,204,0)" width="132" height="73" stroke="none"/>
      <rect x="454" y="315" clip-path="url(#clipPath2)" fill="yellow" width="1" height="75" stroke="none"/>
      <rect x="455" y="315" clip-path="url(#clipPath2)" fill="yellow" width="132" height="1" stroke="none"/>
      <rect x="455" y="389" clip-path="url(#clipPath2)" fill="rgb(178,142,0)" width="133" height="1" stroke="none"/>
      <rect x="587" y="315" clip-path="url(#clipPath2)" fill="rgb(178,142,0)" width="1" height="74" stroke="none"/>
    </g>
    <g font-size="13px" stroke-linecap="butt" transform="matrix(1,0,0,1,-106,23)" text-rendering="geometricPrecision" font-family="sans-serif" shape-rendering="geometricPrecision" font-weight="bold" stroke-miterlimit="1.45">
      <text x="494.28" xml:space="preserve" y="333.6698" clip-path="url(#clipPath5)" stroke="none">Pommes</text>
    </g>
    <g text-rendering="geometricPrecision" shape-rendering="geometricPrecision" transform="matrix(1,0,0,1,-106,23)">
      <line y2="341" fill="none" x1="455" clip-path="url(#clipPath5)" x2="587" y1="341"/>
      <line y2="351" fill="none" x1="455" clip-path="url(#clipPath5)" x2="587" y1="351"/>
      <text stroke-linecap="butt" x="459" y="368.5907" clip-path="url(#clipPath5)" font-family="sans-serif" stroke="none" stroke-miterlimit="1.45" xml:space="preserve">getPreis(): int</text>
      <text stroke-linecap="butt" x="459" y="383.2919" clip-path="url(#clipPath5)" font-family="sans-serif" stroke="none" stroke-miterlimit="1.45" xml:space="preserve">druckeBeschreibung()</text>
      <rect x="602" y="316" clip-path="url(#clipPath2)" fill="rgb(255,204,0)" width="140" height="73" stroke="none"/>
      <rect x="601" y="315" clip-path="url(#clipPath2)" fill="yellow" width="1" height="75" stroke="none"/>
      <rect x="602" y="315" clip-path="url(#clipPath2)" fill="yellow" width="140" height="1" stroke="none"/>
      <rect x="602" y="389" clip-path="url(#clipPath2)" fill="rgb(178,142,0)" width="141" height="1" stroke="none"/>
      <rect x="742" y="315" clip-path="url(#clipPath2)" fill="rgb(178,142,0)" width="1" height="74" stroke="none"/>
    </g>
    <g font-size="13px" stroke-linecap="butt" transform="matrix(1,0,0,1,-106,23)" text-rendering="geometricPrecision" font-family="sans-serif" shape-rendering="geometricPrecision" font-weight="bold" stroke-miterlimit="1.45">
      <text x="629.6318" xml:space="preserve" y="333.6698" clip-path="url(#clipPath6)" stroke="none">Bratkartoffeln</text>
    </g>
    <g text-rendering="geometricPrecision" shape-rendering="geometricPrecision" transform="matrix(1,0,0,1,-106,23)">
      <line y2="341" fill="none" x1="602" clip-path="url(#clipPath6)" x2="742" y1="341"/>
      <line y2="351" fill="none" x1="602" clip-path="url(#clipPath6)" x2="742" y1="351"/>
      <text stroke-linecap="butt" x="606.25" y="368.5907" clip-path="url(#clipPath6)" font-family="sans-serif" stroke="none" stroke-miterlimit="1.45" xml:space="preserve">getPreis(): int</text>
      <text stroke-linecap="butt" x="606.25" y="383.2919" clip-path="url(#clipPath6)" font-family="sans-serif" stroke="none" stroke-miterlimit="1.45" xml:space="preserve">druckeBeschreibung()</text>
      <rect x="756" y="316" clip-path="url(#clipPath2)" fill="rgb(255,204,0)" width="140" height="73" stroke="none"/>
      <rect x="755" y="315" clip-path="url(#clipPath2)" fill="yellow" width="1" height="75" stroke="none"/>
      <rect x="756" y="315" clip-path="url(#clipPath2)" fill="yellow" width="140" height="1" stroke="none"/>
      <rect x="756" y="389" clip-path="url(#clipPath2)" fill="rgb(178,142,0)" width="141" height="1" stroke="none"/>
      <rect x="896" y="315" clip-path="url(#clipPath2)" fill="rgb(178,142,0)" width="1" height="74" stroke="none"/>
    </g>
    <g font-size="13px" stroke-linecap="butt" transform="matrix(1,0,0,1,-106,23)" text-rendering="geometricPrecision" font-family="sans-serif" shape-rendering="geometricPrecision" font-weight="bold" stroke-miterlimit="1.45">
      <text x="811.2141" xml:space="preserve" y="333.6698" clip-path="url(#clipPath7)" stroke="none">Salat</text>
    </g>
    <g text-rendering="geometricPrecision" shape-rendering="geometricPrecision" transform="matrix(1,0,0,1,-106,23)">
      <line y2="341" fill="none" x1="756" clip-path="url(#clipPath7)" x2="896" y1="341"/>
      <line y2="351" fill="none" x1="756" clip-path="url(#clipPath7)" x2="896" y1="351"/>
      <text stroke-linecap="butt" x="760.75" y="368.5907" clip-path="url(#clipPath7)" font-family="sans-serif" stroke="none" stroke-miterlimit="1.45" xml:space="preserve">getPreis(): int</text>
      <text stroke-linecap="butt" x="760.75" y="383.2919" clip-path="url(#clipPath7)" font-family="sans-serif" stroke="none" stroke-miterlimit="1.45" xml:space="preserve">druckeBeschreibung()</text>
      <rect x="756" y="401" clip-path="url(#clipPath2)" fill="rgb(255,204,0)" width="140" height="73" stroke="none"/>
      <rect x="755" y="400" clip-path="url(#clipPath2)" fill="yellow" width="1" height="75" stroke="none"/>
      <rect x="756" y="400" clip-path="url(#clipPath2)" fill="yellow" width="140" height="1" stroke="none"/>
      <rect x="756" y="474" clip-path="url(#clipPath2)" fill="rgb(178,142,0)" width="141" height="1" stroke="none"/>
      <rect x="896" y="400" clip-path="url(#clipPath2)" fill="rgb(178,142,0)" width="1" height="74" stroke="none"/>
    </g>
    <g font-size="13px" stroke-linecap="butt" transform="matrix(1,0,0,1,-106,23)" text-rendering="geometricPrecision" font-family="sans-serif" shape-rendering="geometricPrecision" font-weight="bold" stroke-miterlimit="1.45">
      <text x="806.8882" xml:space="preserve" y="418.6698" clip-path="url(#clipPath8)" stroke="none">Suppe</text>
    </g>
    <g text-rendering="geometricPrecision" shape-rendering="geometricPrecision" transform="matrix(1,0,0,1,-106,23)">
      <line y2="426" fill="none" x1="756" clip-path="url(#clipPath8)" x2="896" y1="426"/>
      <line y2="436" fill="none" x1="756" clip-path="url(#clipPath8)" x2="896" y1="436"/>
      <text stroke-linecap="butt" x="760.75" y="453.5907" clip-path="url(#clipPath8)" font-family="sans-serif" stroke="none" stroke-miterlimit="1.45" xml:space="preserve">getPreis(): int</text>
      <text stroke-linecap="butt" x="760.75" y="468.2919" clip-path="url(#clipPath8)" font-family="sans-serif" stroke="none" stroke-miterlimit="1.45" xml:space="preserve">druckeBeschreibung()</text>
      <rect x="420" y="-17" clip-path="url(#clipPath2)" fill="rgb(255,204,0)" width="135" height="100" stroke="none"/>
      <rect x="419" y="-18" clip-path="url(#clipPath2)" fill="yellow" width="1" height="102" stroke="none"/>
      <rect x="420" y="-18" clip-path="url(#clipPath2)" fill="yellow" width="135" height="1" stroke="none"/>
      <rect x="420" y="83" clip-path="url(#clipPath2)" fill="rgb(178,142,0)" width="136" height="1" stroke="none"/>
      <rect x="555" y="-18" clip-path="url(#clipPath2)" fill="rgb(178,142,0)" width="1" height="101" stroke="none"/>
      <text stroke-linecap="butt" x="451.2217" y="-0.9355" clip-path="url(#clipPath9)" font-family="sans-serif" stroke="none" stroke-miterlimit="1.45" xml:space="preserve">&lt;&lt;interface&gt;&gt;</text>
    </g>
    <g stroke-linecap="butt" font-size="13px" transform="matrix(1,0,0,1,-106,23)" text-rendering="geometricPrecision" font-family="sans-serif" shape-rendering="geometricPrecision" font-style="italic" font-weight="bold" stroke-miterlimit="1.45">
      <text x="463.6877" xml:space="preserve" y="23.771" clip-path="url(#clipPath9)" stroke="none">Gericht </text>
    </g>
    <g text-rendering="geometricPrecision" shape-rendering="geometricPrecision" transform="matrix(1,0,0,1,-106,23)">
      <line y2="31" fill="none" x1="420" clip-path="url(#clipPath9)" x2="555" y1="31"/>
      <line y2="41" fill="none" x1="420" clip-path="url(#clipPath9)" x2="555" y1="41"/>
    </g>
    <g stroke-linecap="butt" transform="matrix(1,0,0,1,-106,23) translate(424,46)" text-rendering="geometricPrecision" font-family="sans-serif" shape-rendering="geometricPrecision" font-style="italic" stroke-miterlimit="1.45">
      <text x="0" xml:space="preserve" y="13" clip-path="url(#clipPath10)" stroke="none">getPreis(): int</text>
      <text x="72" xml:space="preserve" y="13" clip-path="url(#clipPath10)" stroke="none"> </text>
      <text x="0" xml:space="preserve" y="29" clip-path="url(#clipPath10)" stroke="none">druckeBeschreibung() </text>
    </g>
    <g fill="rgb(255,204,0)" text-rendering="geometricPrecision" shape-rendering="geometricPrecision" transform="matrix(1,0,0,1,-106,23)" stroke="rgb(255,204,0)">
      <rect x="605" width="132" height="79" y="155" clip-path="url(#clipPath2)" stroke="none"/>
      <rect x="604" y="154" clip-path="url(#clipPath2)" fill="yellow" width="1" height="81" stroke="none"/>
      <rect x="605" y="154" clip-path="url(#clipPath2)" fill="yellow" width="132" height="1" stroke="none"/>
      <rect x="605" y="234" clip-path="url(#clipPath2)" fill="rgb(178,142,0)" width="133" height="1" stroke="none"/>
      <rect x="737" y="154" clip-path="url(#clipPath2)" fill="rgb(178,142,0)" width="1" height="80" stroke="none"/>
    </g>
    <g text-rendering="geometricPrecision" stroke-miterlimit="1.45" shape-rendering="geometricPrecision" font-family="sans-serif" transform="matrix(1,0,0,1,-106,23)" stroke-linecap="butt">
      <text x="636.8916" xml:space="preserve" y="171.0645" clip-path="url(#clipPath11)" stroke="none">&lt;&lt;abstract&gt;&gt;</text>
      <text x="647.3228" font-size="13px" y="195.771" clip-path="url(#clipPath11)" font-style="italic" stroke="none" font-weight="bold" xml:space="preserve">Beilage </text>
    </g>
    <g fill="rgb(255,204,0)" text-rendering="geometricPrecision" shape-rendering="geometricPrecision" transform="matrix(1,0,0,1,-106,23)" stroke="rgb(255,204,0)">
      <rect x="455" width="132" height="73" y="401" clip-path="url(#clipPath2)" stroke="none"/>
      <rect x="454" y="400" clip-path="url(#clipPath2)" fill="yellow" width="1" height="75" stroke="none"/>
      <rect x="455" y="400" clip-path="url(#clipPath2)" fill="yellow" width="132" height="1" stroke="none"/>
      <rect x="455" y="474" clip-path="url(#clipPath2)" fill="rgb(178,142,0)" width="133" height="1" stroke="none"/>
      <rect x="587" y="400" clip-path="url(#clipPath2)" fill="rgb(178,142,0)" width="1" height="74" stroke="none"/>
    </g>
    <g font-size="13px" stroke-linecap="butt" transform="matrix(1,0,0,1,-106,23)" text-rendering="geometricPrecision" font-family="sans-serif" shape-rendering="geometricPrecision" font-weight="bold" stroke-miterlimit="1.45">
      <text x="499.3486" xml:space="preserve" y="418.6698" clip-path="url(#clipPath12)" stroke="none">Nudeln</text>
    </g>
    <g text-rendering="geometricPrecision" shape-rendering="geometricPrecision" transform="matrix(1,0,0,1,-106,23)">
      <line y2="426" fill="none" x1="455" clip-path="url(#clipPath12)" x2="587" y1="426"/>
      <line y2="436" fill="none" x1="455" clip-path="url(#clipPath12)" x2="587" y1="436"/>
      <text stroke-linecap="butt" x="459" y="453.5907" clip-path="url(#clipPath12)" font-family="sans-serif" stroke="none" stroke-miterlimit="1.45" xml:space="preserve">getPreis(): int</text>
      <text stroke-linecap="butt" x="459" y="468.2919" clip-path="url(#clipPath12)" font-family="sans-serif" stroke="none" stroke-miterlimit="1.45" xml:space="preserve">druckeBeschreibung()</text>
      <rect x="120" y="270" clip-path="url(#clipPath2)" fill="rgb(255,204,0)" width="140" height="73" stroke="none"/>
      <rect x="119" y="269" clip-path="url(#clipPath2)" fill="yellow" width="1" height="75" stroke="none"/>
      <rect x="120" y="269" clip-path="url(#clipPath2)" fill="yellow" width="140" height="1" stroke="none"/>
      <rect x="120" y="343" clip-path="url(#clipPath2)" fill="rgb(178,142,0)" width="141" height="1" stroke="none"/>
      <rect x="260" y="269" clip-path="url(#clipPath2)" fill="rgb(178,142,0)" width="1" height="74" stroke="none"/>
    </g>
    <g font-size="13px" stroke-linecap="butt" transform="matrix(1,0,0,1,-106,23)" text-rendering="geometricPrecision" font-family="sans-serif" shape-rendering="geometricPrecision" font-weight="bold" stroke-miterlimit="1.45">
      <text x="176.1741" xml:space="preserve" y="287.0698" clip-path="url(#clipPath13)" stroke="none">Tofu</text>
    </g>
    <g text-rendering="geometricPrecision" shape-rendering="geometricPrecision" transform="matrix(1,0,0,1,-106,23)">
      <line y2="294" fill="none" x1="120" clip-path="url(#clipPath13)" x2="260" y1="294"/>
      <line y2="304" fill="none" x1="120" clip-path="url(#clipPath13)" x2="260" y1="304"/>
      <text stroke-linecap="butt" x="124.25" y="321.9907" clip-path="url(#clipPath13)" font-family="sans-serif" stroke="none" stroke-miterlimit="1.45" xml:space="preserve">getPreis(): int</text>
      <text stroke-linecap="butt" x="124.25" y="336.6919" clip-path="url(#clipPath13)" font-family="sans-serif" stroke="none" stroke-miterlimit="1.45" xml:space="preserve">druckeBeschreibung()</text>
      <rect x="120" y="176" clip-path="url(#clipPath2)" fill="rgb(255,204,0)" width="140" height="73" stroke="none"/>
      <rect x="119" y="175" clip-path="url(#clipPath2)" fill="yellow" width="1" height="75" stroke="none"/>
      <rect x="120" y="175" clip-path="url(#clipPath2)" fill="yellow" width="140" height="1" stroke="none"/>
      <rect x="120" y="249" clip-path="url(#clipPath2)" fill="rgb(178,142,0)" width="141" height="1" stroke="none"/>
      <rect x="260" y="175" clip-path="url(#clipPath2)" fill="rgb(178,142,0)" width="1" height="74" stroke="none"/>
    </g>
    <g font-size="13px" stroke-linecap="butt" transform="matrix(1,0,0,1,-106,23)" text-rendering="geometricPrecision" font-family="sans-serif" shape-rendering="geometricPrecision" font-weight="bold" stroke-miterlimit="1.45">
      <text x="162.0728" xml:space="preserve" y="193.0698" clip-path="url(#clipPath14)" stroke="none">Garnelen</text>
    </g>
    <g text-rendering="geometricPrecision" shape-rendering="geometricPrecision" transform="matrix(1,0,0,1,-106,23)">
      <line y2="200" fill="none" x1="120" clip-path="url(#clipPath14)" x2="260" y1="200"/>
      <line y2="210" fill="none" x1="120" clip-path="url(#clipPath14)" x2="260" y1="210"/>
      <text stroke-linecap="butt" x="124.25" y="227.9907" clip-path="url(#clipPath14)" font-family="sans-serif" stroke="none" stroke-miterlimit="1.45" xml:space="preserve">getPreis(): int</text>
      <text stroke-linecap="butt" x="124.25" y="242.6919" clip-path="url(#clipPath14)" font-family="sans-serif" stroke="none" stroke-miterlimit="1.45" xml:space="preserve">druckeBeschreibung()</text>
      <path fill="none" stroke-miterlimit="1.45" stroke-dasharray="6,2" d="M344.75 269.0356 L344.75 258 L468.25 258 L468.25 99.004" clip-path="url(#clipPath2)" stroke-linecap="butt"/>
    </g>
    <g stroke-linecap="butt" transform="matrix(1,0,0,1,-106,23)" fill="white" text-rendering="geometricPrecision" shape-rendering="geometricPrecision" stroke-dasharray="6,2" stroke="white" stroke-miterlimit="1.45">
      <path d="M468.25 84.004 L462.25 100.004 L474.25 100.004 Z" stroke="none" clip-path="url(#clipPath2)"/>
      <path fill="none" stroke-dasharray="none" d="M468.25 84.004 L462.25 100.004 L474.25 100.004 Z" clip-path="url(#clipPath2)" stroke="black"/>
      <path fill="none" d="M344.75 175.0125 L344.75 142 L448.25 142 L448.25 99.0139" clip-path="url(#clipPath2)" stroke="black"/>
      <path d="M448.25 84.0139 L442.25 100.0139 L454.25 100.0139 Z" clip-path="url(#clipPath2)" stroke="none"/>
      <path fill="none" stroke-dasharray="none" d="M448.25 84.0139 L442.25 100.0139 L454.25 100.0139 Z" clip-path="url(#clipPath2)" stroke="black"/>
      <path fill="none" stroke-dasharray="none" d="M556.7665 33 L704.5457 33 L704.5457 147.0067" clip-path="url(#clipPath2)" stroke="black"/>
      <path fill="black" stroke-dasharray="none" d="M704.5457 154.0067 L699.5457 147.0067 L704.5457 140.0067 L709.5457 147.0067 Z" clip-path="url(#clipPath2)" stroke="none"/>
    </g>
    <g text-rendering="geometricPrecision" stroke-miterlimit="1.45" shape-rendering="geometricPrecision" font-family="sans-serif" transform="matrix(1,0,0,1,-106,23)" stroke-linecap="butt">
      <text x="568.875" xml:space="preserve" y="49.0645" clip-path="url(#clipPath2)" stroke="none">1</text>
      <text x="568.875" xml:space="preserve" y="26.3633" clip-path="url(#clipPath2)" stroke="none">gericht</text>
      <path fill="none" d="M521.375 315.5622 L521.375 272.6 L615.93 272.6 L615.93 250.0373" clip-path="url(#clipPath2)"/>
      <path fill="white" d="M615.93 235.0373 L609.93 251.0373 L621.93 251.0373 Z" clip-path="url(#clipPath2)" stroke="none"/>
      <path fill="none" d="M615.93 235.0373 L609.93 251.0373 L621.93 251.0373 Z" clip-path="url(#clipPath2)"/>
      <path fill="none" d="M670.362 315.5797 L670.362 250.0274" clip-path="url(#clipPath2)"/>
      <path fill="white" d="M670.362 235.0274 L664.362 251.0274 L676.362 251.0274 Z" clip-path="url(#clipPath2)" stroke="none"/>
      <path fill="none" d="M670.362 235.0274 L664.362 251.0274 L676.362 251.0274 Z" clip-path="url(#clipPath2)"/>
      <path fill="none" d="M826.75 315.5622 L826.75 272.6 L724.5457 272.6 L724.5457 250.0373" clip-path="url(#clipPath2)"/>
      <path fill="white" d="M724.5457 235.0373 L718.5457 251.0373 L730.5457 251.0373 Z" clip-path="url(#clipPath2)" stroke="none"/>
      <path fill="none" d="M724.5457 235.0373 L718.5457 251.0373 L730.5457 251.0373 Z" clip-path="url(#clipPath2)"/>
      <path fill="none" d="M826.75 400.5898 L826.75 394.6 L748.088 394.6 L748.088 282.8 L696.5098 282.8 L696.5098 249.9852" clip-path="url(#clipPath2)"/>
      <path fill="white" d="M696.5098 234.9852 L690.5098 250.9852 L702.5098 250.9852 Z" clip-path="url(#clipPath2)" stroke="none"/>
      <path fill="none" d="M696.5098 234.9852 L690.5098 250.9852 L702.5098 250.9852 Z" clip-path="url(#clipPath2)"/>
      <path fill="none" stroke-dasharray="6,2" d="M672.25 153.967 L672.25 117.136 L543.25 117.136 L543.25 98.9828" clip-path="url(#clipPath2)"/>
    </g>
    <g stroke-linecap="butt" transform="matrix(1,0,0,1,-106,23)" fill="white" text-rendering="geometricPrecision" shape-rendering="geometricPrecision" stroke-dasharray="6,2" stroke="white" stroke-miterlimit="1.45">
      <path d="M543.25 83.9828 L537.25 99.9828 L549.25 99.9828 Z" stroke="none" clip-path="url(#clipPath2)"/>
      <path fill="none" stroke-dasharray="none" d="M543.25 83.9828 L537.25 99.9828 L549.25 99.9828 Z" clip-path="url(#clipPath2)" stroke="black"/>
      <path fill="none" stroke-dasharray="none" d="M521.375 400.5898 L521.375 394.6 L595.768 394.6 L595.768 282.8 L642.17 282.8 L642.17 249.9852" clip-path="url(#clipPath2)" stroke="black"/>
      <path stroke-dasharray="none" d="M642.17 234.9852 L636.17 250.9852 L648.17 250.9852 Z" clip-path="url(#clipPath2)" stroke="none"/>
      <path fill="none" stroke-dasharray="none" d="M642.17 234.9852 L636.17 250.9852 L648.17 250.9852 Z" clip-path="url(#clipPath2)" stroke="black"/>
      <path fill="none" d="M190.25 269.0356 L190.25 258 L488.25 258 L488.25 99.004" clip-path="url(#clipPath2)" stroke="black"/>
      <path d="M488.25 84.004 L482.25 100.004 L494.25 100.004 Z" clip-path="url(#clipPath2)" stroke="none"/>
      <path fill="none" stroke-dasharray="none" d="M488.25 84.004 L482.25 100.004 L494.25 100.004 Z" clip-path="url(#clipPath2)" stroke="black"/>
      <path fill="none" d="M190.25 175.0156 L190.25 117.136 L428.25 117.136 L428.25 98.9828" clip-path="url(#clipPath2)" stroke="black"/>
      <path d="M428.25 83.9828 L422.25 99.9828 L434.25 99.9828 Z" clip-path="url(#clipPath2)" stroke="none"/>
      <path fill="none" stroke-dasharray="none" d="M428.25 83.9828 L422.25 99.9828 L434.25 99.9828 Z" clip-path="url(#clipPath2)" stroke="black"/>
    </g>
  </g>
</svg>
