<?xml version="1.0" encoding="UTF-8"?><svg xmlns="http://www.w3.org/2000/svg" xmlns:xlink="http://www.w3.org/1999/xlink" fill-opacity="1" color-rendering="auto" color-interpolation="auto" text-rendering="auto" stroke="black" stroke-linecap="square" width="751" stroke-miterlimit="10" shape-rendering="auto" stroke-opacity="1" fill="black" stroke-dasharray="none" font-weight="normal" stroke-width="1" height="498" font-family="'Dialog'" font-style="normal" stroke-linejoin="miter" font-size="12px" stroke-dashoffset="0" image-rendering="auto">
  <!--Generated by ySVG 2.5-->
  <defs id="genericDefs"/>
  <g>
    <defs id="defs1">
      <clipPath clipPathUnits="userSpaceOnUse" id="clipPath1">
        <path d="M0 0 L751 0 L751 498 L0 498 L0 0 Z"/>
      </clipPath>
      <clipPath clipPathUnits="userSpaceOnUse" id="clipPath2">
        <path d="M83 144 L834 144 L834 642 L83 642 L83 144 Z"/>
      </clipPath>
      <clipPath clipPathUnits="userSpaceOnUse" id="clipPath3">
        <path d="M348 149 L348 233 L461 233 L461 149 Z"/>
      </clipPath>
      <clipPath clipPathUnits="userSpaceOnUse" id="clipPath4">
        <path d="M0 0 L0 16 L50 16 L50 0 Z"/>
      </clipPath>
      <clipPath clipPathUnits="userSpaceOnUse" id="clipPath5">
        <path d="M157 298 L157 376 L312 376 L312 298 Z"/>
      </clipPath>
      <clipPath clipPathUnits="userSpaceOnUse" id="clipPath6">
        <path d="M327 298 L327 376 L482 376 L482 298 Z"/>
      </clipPath>
      <clipPath clipPathUnits="userSpaceOnUse" id="clipPath7">
        <path d="M498 298 L498 376 L658 376 L658 298 Z"/>
      </clipPath>
      <clipPath clipPathUnits="userSpaceOnUse" id="clipPath8">
        <path d="M322 457 L322 535 L477 535 L477 457 Z"/>
      </clipPath>
      <clipPath clipPathUnits="userSpaceOnUse" id="clipPath9">
        <path d="M498 457 L498 535 L653 535 L653 457 Z"/>
      </clipPath>
      <clipPath clipPathUnits="userSpaceOnUse" id="clipPath10">
        <path d="M674 457 L674 535 L829 535 L829 457 Z"/>
      </clipPath>
    </defs>
    <g fill="white" text-rendering="geometricPrecision" shape-rendering="geometricPrecision" transform="translate(-83,-144)" stroke="white">
      <rect x="83" width="751" height="498" y="144" clip-path="url(#clipPath2)" stroke="none"/>
    </g>
    <g fill="rgb(255,204,0)" text-rendering="geometricPrecision" shape-rendering="geometricPrecision" transform="matrix(1,0,0,1,-83,-144)" stroke="rgb(255,204,0)">
      <rect x="349" width="111" height="82" y="150" clip-path="url(#clipPath2)" stroke="none"/>
      <rect x="348" y="149" clip-path="url(#clipPath2)" fill="yellow" width="1" height="84" stroke="none"/>
      <rect x="349" y="149" clip-path="url(#clipPath2)" fill="yellow" width="111" height="1" stroke="none"/>
      <rect x="349" y="232" clip-path="url(#clipPath2)" fill="rgb(178,142,0)" width="112" height="1" stroke="none"/>
      <rect x="460" y="149" clip-path="url(#clipPath2)" fill="rgb(178,142,0)" width="1" height="83" stroke="none"/>
    </g>
    <g text-rendering="geometricPrecision" stroke-miterlimit="1.45" shape-rendering="geometricPrecision" font-family="sans-serif" transform="matrix(1,0,0,1,-83,-144)" stroke-linecap="butt">
      <text x="369.6416" xml:space="preserve" y="166.0645" clip-path="url(#clipPath3)" stroke="none">&lt;&lt;abstract&gt;&gt;</text>
      <text x="368.8945" font-size="13px" y="190.771" clip-path="url(#clipPath3)" font-style="italic" stroke="none" font-weight="bold" xml:space="preserve">Component</text>
      <line stroke-linecap="square" clip-path="url(#clipPath3)" fill="none" x1="349" x2="460" y1="198" y2="198" stroke-miterlimit="10"/>
      <line stroke-linecap="square" clip-path="url(#clipPath3)" fill="none" x1="349" x2="460" y1="208" y2="208" stroke-miterlimit="10"/>
    </g>
    <g stroke-linecap="butt" transform="matrix(1,0,0,1,-83,-144) translate(353,213)" text-rendering="geometricPrecision" font-family="sans-serif" shape-rendering="geometricPrecision" font-style="italic" stroke-miterlimit="1.45">
      <text x="0" xml:space="preserve" y="13" clip-path="url(#clipPath4)" stroke="none">operate()</text>
    </g>
    <g fill="rgb(255,204,0)" text-rendering="geometricPrecision" shape-rendering="geometricPrecision" transform="matrix(1,0,0,1,-83,-144)" stroke="rgb(255,204,0)">
      <rect x="158" width="153" height="76" y="299" clip-path="url(#clipPath2)" stroke="none"/>
      <rect x="157" y="298" clip-path="url(#clipPath2)" fill="yellow" width="1" height="78" stroke="none"/>
      <rect x="158" y="298" clip-path="url(#clipPath2)" fill="yellow" width="153" height="1" stroke="none"/>
      <rect x="158" y="375" clip-path="url(#clipPath2)" fill="rgb(178,142,0)" width="154" height="1" stroke="none"/>
      <rect x="311" y="298" clip-path="url(#clipPath2)" fill="rgb(178,142,0)" width="1" height="77" stroke="none"/>
    </g>
    <g font-size="13px" stroke-linecap="butt" transform="matrix(1,0,0,1,-83,-144)" text-rendering="geometricPrecision" font-family="sans-serif" shape-rendering="geometricPrecision" font-weight="bold" stroke-miterlimit="1.45">
      <text x="165.5264" xml:space="preserve" y="316.0698" clip-path="url(#clipPath5)" stroke="none">ConcreteComponentA</text>
    </g>
    <g text-rendering="geometricPrecision" shape-rendering="geometricPrecision" transform="matrix(1,0,0,1,-83,-144)">
      <line y2="323" fill="none" x1="158" clip-path="url(#clipPath5)" x2="311" y1="323"/>
      <line y2="333" fill="none" x1="158" clip-path="url(#clipPath5)" x2="311" y1="333"/>
      <text stroke-linecap="butt" x="162" y="350.9907" clip-path="url(#clipPath5)" font-family="sans-serif" stroke="none" stroke-miterlimit="1.45" xml:space="preserve">operate()</text>
      <rect x="328" y="299" clip-path="url(#clipPath2)" fill="rgb(255,204,0)" width="153" height="76" stroke="none"/>
      <rect x="327" y="298" clip-path="url(#clipPath2)" fill="yellow" width="1" height="78" stroke="none"/>
      <rect x="328" y="298" clip-path="url(#clipPath2)" fill="yellow" width="153" height="1" stroke="none"/>
      <rect x="328" y="375" clip-path="url(#clipPath2)" fill="rgb(178,142,0)" width="154" height="1" stroke="none"/>
      <rect x="481" y="298" clip-path="url(#clipPath2)" fill="rgb(178,142,0)" width="1" height="77" stroke="none"/>
    </g>
    <g font-size="13px" stroke-linecap="butt" transform="matrix(1,0,0,1,-83,-144)" text-rendering="geometricPrecision" font-family="sans-serif" shape-rendering="geometricPrecision" font-weight="bold" stroke-miterlimit="1.45">
      <text x="336.0264" xml:space="preserve" y="316.0698" clip-path="url(#clipPath6)" stroke="none">ConcreteComponentA</text>
    </g>
    <g text-rendering="geometricPrecision" shape-rendering="geometricPrecision" transform="matrix(1,0,0,1,-83,-144)">
      <line y2="323" fill="none" x1="328" clip-path="url(#clipPath6)" x2="481" y1="323"/>
      <line y2="333" fill="none" x1="328" clip-path="url(#clipPath6)" x2="481" y1="333"/>
      <text stroke-linecap="butt" x="332.5" y="350.9907" clip-path="url(#clipPath6)" font-family="sans-serif" stroke="none" stroke-miterlimit="1.45" xml:space="preserve">operate()</text>
      <rect x="499" y="299" clip-path="url(#clipPath2)" fill="rgb(255,204,0)" width="158" height="76" stroke="none"/>
      <rect x="498" y="298" clip-path="url(#clipPath2)" fill="yellow" width="1" height="78" stroke="none"/>
      <rect x="499" y="298" clip-path="url(#clipPath2)" fill="yellow" width="158" height="1" stroke="none"/>
      <rect x="499" y="375" clip-path="url(#clipPath2)" fill="rgb(178,142,0)" width="159" height="1" stroke="none"/>
      <rect x="657" y="298" clip-path="url(#clipPath2)" fill="rgb(178,142,0)" width="1" height="77" stroke="none"/>
      <text stroke-linecap="butt" x="542.6416" y="315.0645" clip-path="url(#clipPath7)" font-family="sans-serif" stroke="none" stroke-miterlimit="1.45" xml:space="preserve">&lt;&lt;abstract&gt;&gt;</text>
    </g>
    <g stroke-linecap="butt" font-size="13px" transform="matrix(1,0,0,1,-83,-144)" text-rendering="geometricPrecision" font-family="sans-serif" shape-rendering="geometricPrecision" font-style="italic" font-weight="bold" stroke-miterlimit="1.45">
      <text x="545.4905" xml:space="preserve" y="339.771" clip-path="url(#clipPath7)" stroke="none">Decorator </text>
    </g>
    <g fill="rgb(255,204,0)" text-rendering="geometricPrecision" shape-rendering="geometricPrecision" transform="matrix(1,0,0,1,-83,-144)" stroke="rgb(255,204,0)">
      <rect x="323" width="153" height="76" y="458" clip-path="url(#clipPath2)" stroke="none"/>
      <rect x="322" y="457" clip-path="url(#clipPath2)" fill="yellow" width="1" height="78" stroke="none"/>
      <rect x="323" y="457" clip-path="url(#clipPath2)" fill="yellow" width="153" height="1" stroke="none"/>
      <rect x="323" y="534" clip-path="url(#clipPath2)" fill="rgb(178,142,0)" width="154" height="1" stroke="none"/>
      <rect x="476" y="457" clip-path="url(#clipPath2)" fill="rgb(178,142,0)" width="1" height="77" stroke="none"/>
    </g>
    <g font-size="13px" stroke-linecap="butt" transform="matrix(1,0,0,1,-83,-144)" text-rendering="geometricPrecision" font-family="sans-serif" shape-rendering="geometricPrecision" font-weight="bold" stroke-miterlimit="1.45">
      <text x="337.0073" xml:space="preserve" y="475.0698" clip-path="url(#clipPath8)" stroke="none">ConcreteDecorator1</text>
    </g>
    <g text-rendering="geometricPrecision" shape-rendering="geometricPrecision" transform="matrix(1,0,0,1,-83,-144)">
      <line y2="482" fill="none" x1="323" clip-path="url(#clipPath8)" x2="476" y1="482"/>
      <line y2="492" fill="none" x1="323" clip-path="url(#clipPath8)" x2="476" y1="492"/>
      <text stroke-linecap="butt" x="327" y="509.9907" clip-path="url(#clipPath8)" font-family="sans-serif" stroke="none" stroke-miterlimit="1.45" xml:space="preserve">operate()</text>
      <rect x="499" y="458" clip-path="url(#clipPath2)" fill="rgb(255,204,0)" width="153" height="76" stroke="none"/>
      <rect x="498" y="457" clip-path="url(#clipPath2)" fill="yellow" width="1" height="78" stroke="none"/>
      <rect x="499" y="457" clip-path="url(#clipPath2)" fill="yellow" width="153" height="1" stroke="none"/>
      <rect x="499" y="534" clip-path="url(#clipPath2)" fill="rgb(178,142,0)" width="154" height="1" stroke="none"/>
      <rect x="652" y="457" clip-path="url(#clipPath2)" fill="rgb(178,142,0)" width="1" height="77" stroke="none"/>
    </g>
    <g font-size="13px" stroke-linecap="butt" transform="matrix(1,0,0,1,-83,-144)" text-rendering="geometricPrecision" font-family="sans-serif" shape-rendering="geometricPrecision" font-weight="bold" stroke-miterlimit="1.45">
      <text x="513.0073" xml:space="preserve" y="475.0698" clip-path="url(#clipPath9)" stroke="none">ConcreteDecorator2</text>
    </g>
    <g text-rendering="geometricPrecision" shape-rendering="geometricPrecision" transform="matrix(1,0,0,1,-83,-144)">
      <line y2="482" fill="none" x1="499" clip-path="url(#clipPath9)" x2="652" y1="482"/>
      <text stroke-linecap="butt" x="503" y="499.9907" clip-path="url(#clipPath9)" font-family="sans-serif" stroke="none" stroke-miterlimit="1.45" xml:space="preserve">newState</text>
      <line y2="507" fill="none" x1="499" clip-path="url(#clipPath9)" x2="652" y1="507"/>
      <text stroke-linecap="butt" x="503" y="524.6919" clip-path="url(#clipPath9)" font-family="sans-serif" stroke="none" stroke-miterlimit="1.45" xml:space="preserve">operate()</text>
      <rect x="675" y="458" clip-path="url(#clipPath2)" fill="rgb(255,204,0)" width="153" height="76" stroke="none"/>
      <rect x="674" y="457" clip-path="url(#clipPath2)" fill="yellow" width="1" height="78" stroke="none"/>
      <rect x="675" y="457" clip-path="url(#clipPath2)" fill="yellow" width="153" height="1" stroke="none"/>
      <rect x="675" y="534" clip-path="url(#clipPath2)" fill="rgb(178,142,0)" width="154" height="1" stroke="none"/>
      <rect x="828" y="457" clip-path="url(#clipPath2)" fill="rgb(178,142,0)" width="1" height="77" stroke="none"/>
    </g>
    <g font-size="13px" stroke-linecap="butt" transform="matrix(1,0,0,1,-83,-144)" text-rendering="geometricPrecision" font-family="sans-serif" shape-rendering="geometricPrecision" font-weight="bold" stroke-miterlimit="1.45">
      <text x="689.0073" xml:space="preserve" y="475.0698" clip-path="url(#clipPath10)" stroke="none">ConcreteDecorator3</text>
    </g>
    <g text-rendering="geometricPrecision" shape-rendering="geometricPrecision" transform="matrix(1,0,0,1,-83,-144)">
      <line y2="482" fill="none" x1="675" clip-path="url(#clipPath10)" x2="828" y1="482"/>
      <line y2="492" fill="none" x1="675" clip-path="url(#clipPath10)" x2="828" y1="492"/>
      <text stroke-linecap="butt" x="679" y="509.9907" clip-path="url(#clipPath10)" font-family="sans-serif" stroke="none" stroke-miterlimit="1.45" xml:space="preserve">newOperation()</text>
      <text stroke-linecap="butt" x="679" y="524.6919" clip-path="url(#clipPath10)" font-family="sans-serif" stroke="none" stroke-miterlimit="1.45" xml:space="preserve">operate()</text>
      <path fill="none" stroke-miterlimit="1.45" d="M482.64 571 L679.36 571 L679.36 586 L694.36 586 L694.36 636.136 L482.64 636.136 Z" clip-path="url(#clipPath2)" stroke-linecap="butt"/>
      <path fill="none" stroke-miterlimit="1.45" d="M679.36 571 L679.36 586 L694.36 586 Z" fill-rule="evenodd" clip-path="url(#clipPath2)" stroke-linecap="butt"/>
      <text stroke-linecap="butt" x="499.9795" y="586.2301" clip-path="url(#clipPath2)" font-family="sans-serif" stroke="none" stroke-miterlimit="1.45" xml:space="preserve">public void operate{</text>
      <text stroke-linecap="butt" x="499.9795" y="600.9313" clip-path="url(#clipPath2)" font-family="sans-serif" stroke="none" stroke-miterlimit="1.45" xml:space="preserve">        component.operate();</text>
      <text stroke-linecap="butt" x="499.9795" y="615.6324" clip-path="url(#clipPath2)" font-family="sans-serif" stroke="none" stroke-miterlimit="1.45" xml:space="preserve">        //now decorator's behavior...</text>
      <text stroke-linecap="butt" x="499.9795" y="630.3336" clip-path="url(#clipPath2)" font-family="sans-serif" stroke="none" stroke-miterlimit="1.45" xml:space="preserve">}</text>
      <path fill="none" stroke-miterlimit="1.45" d="M234.5 298.0297 L234.5 273.1 L373 273.1 L373 247.972" clip-path="url(#clipPath2)" stroke-linecap="butt"/>
    </g>
    <g stroke-linecap="butt" transform="matrix(1,0,0,1,-83,-144)" fill="white" text-rendering="geometricPrecision" shape-rendering="geometricPrecision" stroke="white" stroke-miterlimit="1.45">
      <path d="M373 232.972 L367 248.972 L379 248.972 Z" stroke="none" clip-path="url(#clipPath2)"/>
      <path fill="none" d="M373 232.972 L367 248.972 L379 248.972 Z" clip-path="url(#clipPath2)" stroke="black"/>
      <path fill="none" d="M405 297.9692 L405 248.0199" clip-path="url(#clipPath2)" stroke="black"/>
      <path d="M405 233.0199 L399 249.0199 L411 249.0199 Z" clip-path="url(#clipPath2)" stroke="none"/>
      <path fill="none" d="M405 233.0199 L399 249.0199 L411 249.0199 Z" clip-path="url(#clipPath2)" stroke="black"/>
      <path fill="none" d="M461.4792 191 L582 191 L584.0582 291.0183" clip-path="url(#clipPath2)" stroke="black"/>
      <path fill="black" d="M584.2023 298.0168 L579.0593 291.1212 L583.9142 284.0198 L589.0572 290.9154 Z" clip-path="url(#clipPath2)" stroke="none"/>
      <text x="473.625" y="207.0645" clip-path="url(#clipPath2)" fill="black" font-family="sans-serif" stroke="none" xml:space="preserve">1</text>
      <text x="473.625" y="184.3633" clip-path="url(#clipPath2)" fill="black" font-family="sans-serif" stroke="none" xml:space="preserve">component</text>
      <path fill="none" d="M560.4 298.0297 L560.4 273.1 L437 273.1 L437 247.972" clip-path="url(#clipPath2)" stroke="black"/>
      <path d="M437 232.972 L431 248.972 L443 248.972 Z" clip-path="url(#clipPath2)" stroke="none"/>
      <path fill="none" d="M437 232.972 L431 248.972 L443 248.972 Z" clip-path="url(#clipPath2)" stroke="black"/>
      <path fill="none" d="M399.5 456.999 L399.5 424.364 L531.408 424.364 L531.408 391.0323" clip-path="url(#clipPath2)" stroke="black"/>
      <path d="M531.408 376.0323 L525.408 392.0323 L537.408 392.0323 Z" clip-path="url(#clipPath2)" stroke="none"/>
      <path fill="none" d="M531.408 376.0323 L525.408 392.0323 L537.408 392.0323 Z" clip-path="url(#clipPath2)" stroke="black"/>
      <path fill="none" stroke-dasharray="6,2" d="M322.0253 506 L130 506 L130 233 L340.5028 233" clip-path="url(#clipPath2)" stroke="black"/>
      <path fill="black" stroke-dasharray="6,2" d="M348.5028 233 L336.5028 228 L339.5028 233 L336.5028 238 Z" clip-path="url(#clipPath2)" stroke="none"/>
      <text x="134" y="500.3633" clip-path="url(#clipPath2)" fill="black" font-family="sans-serif" stroke="none" xml:space="preserve">&lt;&lt;call&gt;&gt;</text>
      <path fill="none" d="M578 456.9717 L578 390.9838" clip-path="url(#clipPath2)" stroke="black"/>
      <path d="M578 375.9838 L572 391.9838 L584 391.9838 Z" clip-path="url(#clipPath2)" stroke="none"/>
      <path fill="none" d="M578 375.9838 L572 391.9838 L584 391.9838 Z" clip-path="url(#clipPath2)" stroke="black"/>
      <path fill="none" stroke-dasharray="6,2" d="M520.5 535.0137 L520.5 546 L108.875 546 L108.875 224 L340.5005 224" clip-path="url(#clipPath2)" stroke="black"/>
      <path fill="black" stroke-dasharray="6,2" d="M348.5005 224 L336.5005 219 L339.5005 224 L336.5005 229 Z" clip-path="url(#clipPath2)" stroke="none"/>
      <text x="112.875" y="540.3633" clip-path="url(#clipPath2)" fill="black" font-family="sans-serif" stroke="none" xml:space="preserve">&lt;&lt;call&gt;&gt;</text>
      <path fill="none" d="M751.5 456.999 L751.5 424.364 L627.664 424.364 L627.664 391.0323" clip-path="url(#clipPath2)" stroke="black"/>
      <path d="M627.664 376.0323 L621.664 392.0323 L633.664 392.0323 Z" clip-path="url(#clipPath2)" stroke="none"/>
      <path fill="none" d="M627.664 376.0323 L621.664 392.0323 L633.664 392.0323 Z" clip-path="url(#clipPath2)" stroke="black"/>
      <path fill="none" stroke-dasharray="6,2" d="M701.36 534.999 L701.36 566 L88.875 566 L88.875 217 L340.4664 217" clip-path="url(#clipPath2)" stroke="black"/>
      <path fill="black" stroke-dasharray="6,2" d="M348.4664 217 L336.4664 212 L339.4664 217 L336.4664 222 Z" clip-path="url(#clipPath2)" stroke="none"/>
      <text x="92.875" y="560.3633" clip-path="url(#clipPath2)" fill="black" font-family="sans-serif" stroke="none" xml:space="preserve">&lt;&lt;call&gt;&gt;</text>
    </g>
  </g>
</svg>
