<?xml version="1.0" encoding="UTF-8"?><svg xmlns="http://www.w3.org/2000/svg" xmlns:xlink="http://www.w3.org/1999/xlink" fill-opacity="1" color-rendering="auto" color-interpolation="auto" text-rendering="auto" stroke="black" stroke-linecap="square" width="186" stroke-miterlimit="10" shape-rendering="auto" stroke-opacity="1" fill="black" stroke-dasharray="none" font-weight="normal" stroke-width="1" height="117" font-family="'Dialog'" font-style="normal" stroke-linejoin="miter" font-size="12px" stroke-dashoffset="0" image-rendering="auto">
  <!--Generated by ySVG 2.5-->
  <defs id="genericDefs"/>
  <g>
    <defs id="defs1">
      <clipPath clipPathUnits="userSpaceOnUse" id="clipPath1">
        <path d="M0 0 L186 0 L186 117 L0 117 L0 0 Z"/>
      </clipPath>
      <clipPath clipPathUnits="userSpaceOnUse" id="clipPath2">
        <path d="M206 158 L392 158 L392 275 L206 275 L206 158 Z"/>
      </clipPath>
      <clipPath clipPathUnits="userSpaceOnUse" id="clipPath3">
        <path d="M211 163 L211 270 L386 270 L386 163 Z"/>
      </clipPath>
      <clipPath clipPathUnits="userSpaceOnUse" id="clipPath4">
        <path d="M0 0 L0 16 L115 16 L115 0 Z"/>
      </clipPath>
      <clipPath clipPathUnits="userSpaceOnUse" id="clipPath5">
        <path d="M0 0 L0 48 L143 48 L143 0 Z"/>
      </clipPath>
    </defs>
    <g fill="white" text-rendering="geometricPrecision" shape-rendering="geometricPrecision" transform="translate(-206,-158)" stroke="white">
      <rect x="206" width="186" height="117" y="158" clip-path="url(#clipPath2)" stroke="none"/>
    </g>
    <g fill="rgb(255,204,0)" text-rendering="geometricPrecision" shape-rendering="geometricPrecision" transform="matrix(1,0,0,1,-206,-158)" stroke="rgb(255,204,0)">
      <rect x="212" width="173" height="105" y="164" clip-path="url(#clipPath2)" stroke="none"/>
      <rect x="211" y="163" clip-path="url(#clipPath2)" fill="yellow" width="1" height="107" stroke="none"/>
      <rect x="212" y="163" clip-path="url(#clipPath2)" fill="yellow" width="173" height="1" stroke="none"/>
      <rect x="212" y="269" clip-path="url(#clipPath2)" fill="rgb(178,142,0)" width="174" height="1" stroke="none"/>
      <rect x="385" y="163" clip-path="url(#clipPath2)" fill="rgb(178,142,0)" width="1" height="106" stroke="none"/>
    </g>
    <g font-size="13px" stroke-linecap="butt" transform="matrix(1,0,0,1,-206,-158)" text-rendering="geometricPrecision" font-family="sans-serif" shape-rendering="geometricPrecision" font-weight="bold" stroke-miterlimit="1.45">
      <text x="269.3914" xml:space="preserve" y="181.0698" clip-path="url(#clipPath3)" stroke="none">Singleton</text>
    </g>
    <g text-rendering="geometricPrecision" shape-rendering="geometricPrecision" transform="matrix(1,0,0,1,-206,-158)">
      <line y2="188" fill="none" x1="212" clip-path="url(#clipPath3)" x2="385" y1="188"/>
    </g>
    <g text-rendering="geometricPrecision" stroke-miterlimit="1.45" shape-rendering="geometricPrecision" font-family="sans-serif" transform="matrix(1,0,0,1,-206,-158) translate(216,193)" stroke-linecap="butt">
      <text x="0" xml:space="preserve" y="13" clip-path="url(#clipPath4)" stroke="none">- instance: Singleton </text>
      <line y2="14" fill="none" x1="0" clip-path="url(#clipPath4)" x2="115" y1="14"/>
    </g>
    <g text-rendering="geometricPrecision" shape-rendering="geometricPrecision" transform="matrix(1,0,0,1,-206,-158)">
      <line y2="214" fill="none" x1="212" clip-path="url(#clipPath3)" x2="385" y1="214"/>
    </g>
    <g text-rendering="geometricPrecision" stroke-miterlimit="1.45" shape-rendering="geometricPrecision" font-family="sans-serif" transform="matrix(1,0,0,1,-206,-158) translate(216,219)" stroke-linecap="butt">
      <text x="0" xml:space="preserve" y="13" clip-path="url(#clipPath5)" stroke="none">- Singleton()</text>
      <text x="67" xml:space="preserve" y="13" clip-path="url(#clipPath5)" stroke="none"> </text>
      <text x="0" xml:space="preserve" y="29" clip-path="url(#clipPath5)" stroke="none">+ getInstance(): Singleton </text>
      <line y2="30" fill="none" x1="0" clip-path="url(#clipPath5)" x2="143" y1="30"/>
      <text x="143" xml:space="preserve" y="29" clip-path="url(#clipPath5)" stroke="none"> </text>
      <text x="0" xml:space="preserve" y="45" clip-path="url(#clipPath5)" stroke="none">//logic code</text>
    </g>
  </g>
</svg>
